<?xml version="1.0" standalone="no"?>
<!DOCTYPE svg PUBLIC "-//W3C//DTD SVG 20010904//EN"
 "http://www.w3.org/TR/2001/REC-SVG-20010904/DTD/svg10.dtd">
<svg version="1.0" xmlns="http://www.w3.org/2000/svg"
 width="500.000000pt" height="500.000000pt" viewBox="0 0 500.000000 500.000000"
 preserveAspectRatio="xMidYMid meet">

<g transform="translate(0.000000,500.000000) scale(0.100000,-0.100000)"
fill="#000000" stroke="none">
<path d="M1385 4780 c-227 -23 -389 -100 -532 -254 -105 -114 -166 -227 -201
-379 -16 -66 -17 -207 -17 -1647 0 -1440 1 -1581 17 -1647 35 -152 96 -265
201 -379 118 -127 259 -206 432 -241 84 -17 166 -18 1215 -18 1248 0 1213 -2
1377 66 184 77 353 249 429 438 62 153 59 63 59 1781 0 1453 -1 1571 -17 1643
-35 153 -93 266 -197 379 -117 127 -248 203 -413 241 -91 20 -111 21 -1183 23
-600 1 -1126 -2 -1170 -6z m2235 -419 c91 -16 159 -52 219 -116 74 -78 98
-137 111 -270 14 -150 14 -2800 0 -2950 -13 -133 -37 -192 -111 -270 -63 -66
-129 -100 -229 -117 -109 -19 -2111 -19 -2220 0 -100 17 -166 51 -229 117 -74
78 -98 137 -111 270 -14 150 -14 2800 0 2950 13 131 37 191 106 266 93 99 152
119 379 129 262 12 2009 4 2085 -9z"/>
<path d="M1585 3731 c-103 -48 -152 -167 -110 -269 20 -47 50 -78 100 -105
l40 -22 885 0 885 0 40 22 c50 27 80 58 100 105 42 102 -7 221 -110 269 -38
18 -84 19 -915 19 -831 0 -877 -1 -915 -19z"/>
<path d="M1625 2911 c-72 -18 -123 -60 -150 -123 -43 -104 10 -228 117 -272
33 -14 123 -16 700 -16 l663 0 52 24 c65 30 104 86 111 156 7 75 -4 113 -49
164 -69 78 -50 76 -778 75 -350 -1 -649 -4 -666 -8z"/>
<path d="M1569 2057 c-24 -13 -57 -43 -74 -66 -27 -38 -30 -51 -30 -116 0 -65
3 -78 30 -116 17 -23 50 -53 74 -66 43 -22 51 -23 306 -23 255 0 263 1 306 23
24 13 58 43 74 66 27 38 30 51 30 116 0 65 -3 78 -30 116 -16 23 -50 53 -74
66 -43 22 -51 23 -306 23 -255 0 -263 -1 -306 -23z"/>
</g>
</svg>
