<?xml version="1.0" standalone="no"?>
<!DOCTYPE svg PUBLIC "-//W3C//DTD SVG 20010904//EN"
 "http://www.w3.org/TR/2001/REC-SVG-20010904/DTD/svg10.dtd">
<svg version="1.0" xmlns="http://www.w3.org/2000/svg"
 width="500.000000pt" height="500.000000pt" viewBox="0 0 500.000000 500.000000"
 preserveAspectRatio="xMidYMid meet">

<g transform="translate(0.000000,500.000000) scale(0.100000,-0.100000)"
fill="#000000" stroke="none">
<path d="M1385 4780 c-227 -23 -389 -100 -532 -254 -108 -116 -166 -227 -201
-383 -16 -72 -17 -191 -17 -1648 0 -1436 1 -1576 17 -1642 35 -150 95 -264
197 -375 117 -127 249 -203 416 -241 83 -18 133 -20 675 -24 421 -3 596 -1
623 7 89 27 157 132 143 223 -10 58 -43 112 -89 144 l-40 28 -561 7 c-331 4
-590 11 -631 17 -95 16 -162 50 -224 116 -74 78 -98 137 -111 270 -14 150 -14
2800 0 2950 8 78 18 125 35 163 31 68 115 156 179 187 102 49 126 50 1236 50
1110 0 1134 -1 1236 -50 64 -31 148 -119 179 -187 40 -87 45 -211 45 -1029 l0
-755 25 -51 c16 -32 41 -61 67 -79 36 -25 50 -29 114 -29 64 0 77 3 116 30 23
17 53 49 66 70 l22 40 -3 875 c-3 779 -5 883 -20 944 -37 148 -96 259 -196
368 -117 127 -248 203 -413 241 -91 20 -111 21 -1183 23 -600 1 -1126 -2
-1170 -6z"/>
<path d="M1585 3731 c-103 -48 -152 -167 -110 -269 20 -47 50 -78 100 -105
l40 -22 885 0 885 0 40 22 c50 27 80 58 100 105 42 102 -7 221 -110 269 -38
18 -84 19 -915 19 -831 0 -877 -1 -915 -19z"/>
<path d="M1625 2911 c-72 -18 -123 -60 -150 -123 -43 -104 10 -228 117 -272
33 -14 123 -16 700 -16 l663 0 52 24 c65 30 104 86 111 156 7 75 -4 113 -49
164 -69 78 -50 76 -778 75 -350 -1 -649 -4 -666 -8z"/>
<path d="M1569 2057 c-24 -13 -57 -43 -74 -66 -27 -38 -30 -51 -30 -116 0 -65
3 -78 30 -116 17 -23 50 -53 74 -66 43 -22 51 -23 306 -23 255 0 263 1 306 23
24 13 58 43 74 66 27 38 30 51 30 116 0 65 -3 78 -30 116 -16 23 -50 53 -74
66 -43 22 -51 23 -306 23 -255 0 -263 -1 -306 -23z"/>
<path d="M4284 1745 c-36 -18 -151 -127 -449 -425 l-400 -400 -155 154 c-170
169 -196 185 -290 172 -139 -19 -220 -185 -148 -306 37 -63 465 -485 511 -505
49 -20 123 -19 172 4 27 13 202 182 536 517 539 542 526 525 517 630 -6 71
-44 125 -111 159 -65 32 -119 32 -183 0z"/>
</g>
</svg>
